<?xml version="1.0" encoding="utf-8" ?><svg xmlns="http://www.w3.org/2000/svg" xmlns:xlink="http://www.w3.org/1999/xlink" width="1024" height="1024" viewBox="0 0 1024 1024"><path fill="#19A88D" transform="scale(2 2)" d="M251.203 48.2491C286.962 44.2376 311.011 81.5586 322.958 110.092C325.152 115.33 326.443 121.38 329.084 126.328C356.503 117.909 404.797 117.79 425.349 139.93C455.741 172.67 423.226 228.047 396.538 253.632C418.577 277.699 444.466 314.342 435.758 349.426C425.469 390.883 360.795 390.058 329.084 380.82C321.239 412.827 296.247 451.999 261.917 458.978C225.691 461.98 202.337 427.828 189.704 398.592C187.739 394.046 184.656 387.479 183.758 382.686C97.4738 400.474 36.6548 357.34 99.6244 272.8C104.454 266.315 110.689 260.153 115.28 253.632C112.842 251.586 110.298 248.264 108.21 245.728C88.2476 221.494 65.6506 186.858 77.6964 154.215C90.1224 120.541 133.04 118.524 162.974 122.273C168.455 122.952 178.613 124.412 183.758 126.328C196.974 94.7242 211.563 53.8444 251.203 48.2491ZM186.85 217.25C184.271 237.953 184.624 270.498 186.85 290.749C194.334 298.305 253.022 333.885 255.827 333.149C263.682 329.012 324.77 294.744 325.265 289.766C326.953 272.807 326.294 255.402 326.231 238.378C326.206 231.617 324.903 223.654 325.733 217.25C310.365 206.558 272.392 181.081 255.827 175.206C234.224 187.475 214.067 198.091 193.334 212.566C191.246 214.024 188.705 215.561 186.85 217.25ZM202.926 131.958C218.201 136.855 242.151 145.547 255.827 153.36L259.123 152.003C273.762 145.146 294.393 135.879 310.093 131.958C303.791 109.229 281.156 63.5085 253.208 67.8338C239.476 70.2351 231.194 78.5393 223.198 89.4811C216.947 98.0348 204.756 121.925 202.926 131.958ZM344.401 301.426C343.728 304.931 343.377 308.934 343.116 312.502C341.859 329.696 337.872 345.994 334.358 362.778C346.453 366.164 358.147 367.319 370.625 367.25C391.106 367.408 419.321 360.262 418.509 334.993C417.727 310.679 400.328 287.192 384.652 269.899C384.179 269.377 383.296 268.672 382.649 268.41C373.028 275.549 362.662 286.457 352.724 294.491C349.936 296.745 346.857 298.815 344.401 301.426ZM334.358 145.457C337.322 158.326 339.753 170.82 341.627 183.891C342.747 191.702 342.893 199.097 344.401 206.811C346.275 209.125 349.426 210.964 351.804 212.841C362.347 221.166 373.085 230.009 382.649 239.438L385.675 235.948C400.311 220.688 418.562 194.192 418.501 172.51C418.424 145.437 385.566 138.359 364.192 140.467C356.493 141.259 341.291 142.765 334.358 145.457ZM129.298 239.438L131.576 236.836C139.153 229.172 146.608 223.185 154.883 216.247C158.347 213.342 165.324 208.866 168.008 205.549C170.572 189.06 171.328 175.158 175.493 158.161C176.496 154.065 177.787 149.593 178.468 145.457C168.621 142.626 148.026 138.778 138.015 140.467C128.695 139.104 113.792 143.281 106.528 148.865C72.9146 174.703 111.805 216.551 129.298 239.438ZM257.813 438.994C286.573 435.646 299.885 399.755 310.093 376.638C299.408 372.56 288.12 369.354 277.504 364.893C270.29 361.861 263.211 357.486 255.827 355.01C244.8 360.565 233.221 364.857 221.838 369.601C216.012 372.029 208.399 373.797 202.926 376.638C208.714 399.284 230.127 441.297 257.813 438.994ZM197.204 150.788C193.629 161.656 190.183 180.543 189.313 191.444C197.028 186.203 203.701 181.892 211.935 177.298C218.756 173.006 226.055 168.441 233.388 165.094C224.525 160.026 206.941 153.436 197.204 150.788ZM153.618 264.612C157.034 266.928 162.44 271.809 165.753 274.652C166.025 271.301 165.954 261.04 165.692 257.877C165.447 254.925 166.198 233.48 165.942 232.993L165.753 232.935C156.338 239.994 150.845 245.893 142.536 253.632C145.384 256.487 151.504 261.948 153.618 264.612ZM322.885 191.444C322.33 186.295 316.951 153.653 315.091 150.914L314.812 150.788C304.243 153.858 288.192 159.835 278.516 165.094C285.864 169.257 292.94 172.966 300.381 177.298L322.885 191.444ZM189.313 316.59C190.538 329.085 193.904 344.674 197.204 356.925C205.618 353.819 213.914 350.923 222.326 347.732C225.529 346.438 228.709 345.14 231.775 343.538C224.155 338.772 216.029 334.389 208.486 329.404C204.829 326.988 192.67 317.958 189.313 316.59ZM345.874 274.652C349.263 271.034 354.508 267.312 358.41 263.658C361.593 260.758 366.407 256.64 369.199 253.632C363.313 248.465 352.207 236.535 345.874 232.935C345.034 244.871 345.772 262.329 345.874 274.652ZM143.312 367.25C155.363 365.481 165.464 365.96 178.468 362.778C173.447 348.454 168.106 317.241 168.008 301.426C152.576 290.863 142.768 279.949 129.298 268.41C111.314 285.186 80.6494 331.986 100.641 353.086C112.632 365.741 127.602 365.129 143.312 367.25ZM289.081 347.732C297.586 350.583 307.56 354.454 315.961 356.925C319.618 344.465 321.536 329.818 323.24 316.946C322.999 316.58 323.152 316.647 322.885 316.59C308.629 326.305 293.919 334.394 279.485 343.538C281.688 344.978 286.452 346.648 289.081 347.732Z"/><path fill="#19A88D" transform="scale(2 2)" d="M252.24 217.458C272.358 215.297 290.434 229.813 292.667 249.923C294.899 270.033 280.447 288.16 260.345 290.464C240.143 292.779 221.904 278.238 219.661 258.027C217.417 237.817 232.022 219.63 252.24 217.458ZM240.801 264.612C248.055 269.402 247.054 264.902 251.203 259.997L257.018 259.997C258.61 259.992 260.338 259.952 261.917 259.997C263.578 264.456 264.245 269.022 269.964 265.51C272.827 263.751 260.673 242.648 258.978 239.098C258.45 237.991 256.123 237.73 254.954 237.752C251.555 239.776 242.406 259.589 240.801 264.612Z"/></svg>
